<?xml version="1.0" standalone="no"?>
<!DOCTYPE svg PUBLIC "-//W3C//DTD SVG 20010904//EN"
 "http://www.w3.org/TR/2001/REC-SVG-20010904/DTD/svg10.dtd">
<svg version="1.0" xmlns="http://www.w3.org/2000/svg"
 width="267.000000pt" height="267.000000pt" viewBox="0 0 267.000000 267.000000"
 preserveAspectRatio="xMidYMid meet">
<metadata>
Created by potrace 1.11, written by Peter Selinger 2001-2013
</metadata>
<g transform="translate(0.000000,267.000000) scale(0.100000,-0.100000)"
fill="#000000" stroke="none">
<path d="M920 2314 c-223 -124 -409 -229 -415 -235 -11 -11 -15 -353 -4 -370
4 -6 41 -30 83 -53 l76 -42 -82 -47 -83 -46 0 -186 0 -186 78 -42 c42 -23 77
-45 77 -48 0 -3 -35 -25 -78 -48 l-77 -43 0 -186 0 -186 45 -26 c25 -15 81
-46 125 -70 44 -24 208 -115 365 -203 157 -88 292 -159 300 -159 13 0 544 291
780 427 l55 31 0 183 0 183 -25 17 c-14 9 -41 25 -61 35 -44 23 -74 45 -68 49
2 2 36 21 74 42 39 21 72 40 75 42 2 2 5 88 5 189 l1 186 -83 45 -82 46 66 39
c36 21 69 38 74 38 19 0 23 35 24 203 l1 179 -26 17 c-21 15 -286 163 -560
314 -36 20 -105 58 -155 86 -49 28 -92 51 -95 51 -3 0 -187 -102 -410 -226z
m770 3 c162 -90 389 -217 417 -234 l33 -20 -43 -21 c-23 -12 -67 -36 -97 -53
-53 -30 -115 -65 -210 -117 -25 -14 -99 -55 -165 -92 -66 -37 -147 -82 -180
-100 -33 -18 -69 -39 -80 -46 -11 -8 -24 -14 -31 -14 -6 0 -64 30 -130 66
-198 110 -476 265 -524 291 -25 14 -71 39 -102 56 -51 26 -56 32 -40 42 17 11
111 64 550 308 l242 135 153 -86 c83 -46 177 -98 207 -115z m-984 -726 c5 -4
34 -22 64 -38 30 -17 98 -54 150 -83 401 -225 408 -228 432 -215 13 6 66 36
118 65 52 29 120 66 150 83 30 17 123 68 205 115 l150 84 30 -17 c17 -10 51
-28 78 -42 26 -14 47 -28 47 -32 0 -4 -15 -15 -32 -24 -18 -9 -58 -30 -88 -48
-53 -30 -462 -257 -565 -314 -27 -15 -64 -36 -82 -46 l-31 -19 -59 31 c-32 18
-107 60 -168 94 -60 34 -141 79 -180 100 -38 21 -99 55 -135 75 -73 43 -131
75 -207 116 -29 15 -53 31 -53 34 0 8 141 89 156 89 5 1 14 -3 20 -8z m54
-589 c30 -16 169 -93 309 -171 139 -77 257 -141 261 -141 3 0 53 26 111 58 57
32 135 75 172 95 37 21 84 47 105 59 153 86 251 138 263 138 8 -1 46 -20 86
-43 l72 -42 -32 -19 c-30 -17 -84 -47 -182 -101 -67 -36 -150 -83 -373 -207
-117 -65 -217 -118 -222 -118 -8 0 -358 192 -560 307 -19 11 -75 41 -125 68
-49 26 -96 52 -102 58 -15 11 -17 27 -4 27 5 0 40 18 78 39 37 21 73 35 78 31
6 -4 35 -21 65 -38z"/>
</g>
</svg>
